<?xml version="1.0"?>
<svg xmlns="http://www.w3.org/2000/svg" height="512px" viewBox="-2 0 483 483.68985" width="512px" class=""><g><path d="m479.730469 243.773438c1.234375-2.988282.554687-6.425782-1.730469-8.710938l-64-64c-3.136719-3.035156-8.128906-2.988281-11.214844.097656-3.085937 3.082032-3.128906 8.074219-.097656 11.210938l50.34375 50.34375h-100.6875v-208c0-13.253906-10.742188-24-24-24h-290.734375c-9.09375-2-18.601563.238281-25.847656 6.082031-7.246094 5.847656-11.445313 14.664063-11.417969 23.976563v373.792968c.019531 10.785156 7.210938 20.242188 17.601562 23.140625l200 55.113281c7.226563 2 14.972657.507813 20.9375-4.035156 5.964844-4.542968 9.464844-11.609375 9.460938-19.109375v-26.960937h80c13.257812 0 24-10.742188 24-24v-160h100.6875l-50.34375 50.347656c-2.078125 2.007812-2.914062 4.980469-2.179688 7.777344.730469 2.796875 2.917969 4.980468 5.714844 5.714844 2.796875.730468 5.769532-.101563 7.777344-2.183594l64-64c.742188-.742188 1.328125-1.625 1.730469-2.597656zm-143.386719-219.058594v208h-88v-155.839844c-.03125-9.921875-6.164062-18.800781-15.429688-22.34375-.71875-.300781-1.453124-.570312-2.199218-.796875l-134.265625-37.019531h231.894531c4.417969 0 8 3.582031 8 8zm-104 434.960937c.003906 2.5-1.160156 4.859375-3.152344 6.375-1.988281 1.515625-4.570312 2.015625-6.980468 1.347657l-200-55.113282c-3.46875-.960937-5.871094-4.121094-5.867188-7.71875v-373.792968c-.011719-4.648438 2.152344-9.035157 5.851562-11.851563 3.699219-2.816406 8.503907-3.742187 12.980469-2.492187l191.28125 52.71875c3.480469.953124 5.894531 4.117187 5.886719 7.726562zm104-50.960937c0 4.421875-3.582031 8-8 8h-80v-168h88zm0 0" data-original="#000000" class="active-path" data-old_color="#000000" fill="#333333"/></g> </svg>
