<svg xmlns="http://www.w3.org/2000/svg" height="512" viewBox="-2 0 483 483.69" width="512"><path d="M479.73 243.773a7.998 7.998 0 0 0-1.73-8.71l-64-64c-3.137-3.036-8.129-2.989-11.215.097a7.996 7.996 0 0 0-.097 11.211l50.343 50.344H352.344v-208c0-13.254-10.742-24-24-24H37.609A30.677 30.677 0 0 0 .344 30.773v373.793a24.069 24.069 0 0 0 17.601 23.141l200 55.113c7.227 2 14.973.508 20.938-4.035a24.002 24.002 0 0 0 9.46-19.11v-26.96h80c13.259 0 24-10.742 24-24v-160h100.688l-50.343 50.347a7.992 7.992 0 0 0-2.18 7.778 8.005 8.005 0 0 0 5.715 5.715A7.994 7.994 0 0 0 414 310.37l64-64a7.986 7.986 0 0 0 1.73-2.598zM336.344 24.715v208h-88V76.875a24.003 24.003 0 0 0-15.43-22.344c-.719-.3-1.453-.57-2.2-.797L96.45 16.714h231.895a8 8 0 0 1 8 8zm-104 434.96a7.992 7.992 0 0 1-3.153 6.376 7.992 7.992 0 0 1-6.98 1.347l-200-55.113a8.004 8.004 0 0 1-5.867-7.719V30.773a14.847 14.847 0 0 1 5.851-11.851 14.842 14.842 0 0 1 12.98-2.492l191.282 52.718a7.995 7.995 0 0 1 5.887 7.727zm104-50.96c0 4.422-3.582 8-8 8h-80v-168h88zm0 0" data-original="#000000" class="active-path" data-old_color="#000000" fill="#333"/></svg>