<?xml version="1.0"?>
<svg xmlns="http://www.w3.org/2000/svg" xmlns:xlink="http://www.w3.org/1999/xlink" version="1.1" id="Capa_1" x="0px" y="0px" viewBox="0 0 303.72 303.72" style="enable-background:new 0 0 303.72 303.72;" xml:space="preserve" width="512px" height="512px" class=""><g><g>
	<g>
		<path d="M300.462,255.858L168.603,27.477c-3.432-5.999-9.872-9.714-16.78-9.714    c-6.902,0-13.326,3.72-16.78,9.698L2.586,256.897c-3.448,5.972-3.448,13.386,0,19.358c3.454,5.988,9.877,9.703,16.78,9.703    h264.997c10.671,0,19.358-8.697,19.358-19.374C303.715,262.591,302.534,258.751,300.462,255.858z M160.966,103.613l-3.051,104.278    h-16.671l-3.04-104.278H160.966z M149.582,251.447c-7.919,0-13.674-6.016-13.674-14.321c0-8.278,5.755-14.294,13.674-14.294    c8.061,0,13.696,5.88,13.696,14.294C163.278,245.567,157.638,251.447,149.582,251.447z" data-original="#010002" class="active-path" data-old_color="#010002" fill="#F7A200"/>
	</g>
</g></g> </svg>
