<svg xmlns="http://www.w3.org/2000/svg" viewBox="0 0 303.72 303.72" width="512" height="512"><path d="M300.462 255.858L168.603 27.477c-3.432-5.999-9.872-9.714-16.78-9.714-6.902 0-13.326 3.72-16.78 9.698L2.586 256.897a19.407 19.407 0 0 0 0 19.358c3.454 5.988 9.877 9.703 16.78 9.703h264.997c10.671 0 19.358-8.697 19.358-19.374-.006-3.993-1.187-7.833-3.259-10.726zM160.966 103.613l-3.051 104.278h-16.671l-3.04-104.278h22.762zm-11.384 147.834c-7.919 0-13.674-6.016-13.674-14.321 0-8.278 5.755-14.294 13.674-14.294 8.061 0 13.696 5.88 13.696 14.294 0 8.441-5.64 14.321-13.696 14.321z" data-original="#010002" class="active-path" data-old_color="#010002" fill="#F7A200"/></svg>