<svg xmlns="http://www.w3.org/2000/svg" viewBox="0 0 60 60" width="512" height="512"><path d="M56.612 4.569a.999.999 0 1 0-1.414 1.414c3.736 3.736 3.736 9.815 0 13.552a.999.999 0 1 0 1.414 1.414c4.516-4.515 4.516-11.864 0-16.38z" data-original="#000000" class="active-path" data-old_color="#000000" fill="#047BD5"/><path d="M52.401 6.845a.999.999 0 1 0-1.414 1.414c1.237 1.237 1.918 2.885 1.918 4.639s-.681 3.401-1.918 4.638a.999.999 0 1 0 1.414 1.414c1.615-1.614 2.504-3.764 2.504-6.052s-.888-4.439-2.504-6.053zM4.802 5.983a.999.999 0 1 0-1.414-1.414c-4.516 4.516-4.516 11.864 0 16.38a.997.997 0 0 0 1.414 0 .999.999 0 0 0 0-1.414c-3.737-3.736-3.737-9.815 0-13.552z" data-original="#000000" class="active-path" data-old_color="#000000" fill="#047BD5"/><path d="M9.013 6.569a.999.999 0 0 0-1.414 0c-1.615 1.614-2.504 3.764-2.504 6.052s.889 4.438 2.504 6.053a.997.997 0 0 0 1.414 0 .999.999 0 0 0 0-1.414c-1.237-1.237-1.918-2.885-1.918-4.639s.68-3.401 1.918-4.638a1 1 0 0 0 0-1.414z" data-original="#000000" class="active-path" data-old_color="#000000" fill="#047BD5"/><circle cx="30" cy="53" r="2" data-original="#000000" class="active-path" data-old_color="#000000" fill="#047BD5"/><path d="M42.595 0h-25.19A4.41 4.41 0 0 0 13 4.405v51.189A4.41 4.41 0 0 0 17.405 60h25.189A4.41 4.41 0 0 0 47 55.595V4.405A4.41 4.41 0 0 0 42.595 0zM33 3h1a1 1 0 1 1 0 2h-1a1 1 0 1 1 0-2zm-7 0h4a1 1 0 1 1 0 2h-4a1 1 0 1 1 0-2zm4 54c-2.206 0-4-1.794-4-4s1.794-4 4-4 4 1.794 4 4-1.794 4-4 4zm15-11H15V8h30v38z" data-original="#000000" class="active-path" data-old_color="#000000" fill="#047BD5"/></svg>