<svg xmlns="http://www.w3.org/2000/svg" viewBox="0 0 243.5 243.5" width="512" height="512"><path d="M113.403 157.775a7.5 7.5 0 1 0 14.92-1.543l-3.458-33.468a7.5 7.5 0 0 0-14.92 1.542l3.458 33.469zM160.338 164.464a7.502 7.502 0 0 0 8.231-6.689l3.458-33.468a7.499 7.499 0 0 0-6.689-8.231c-4.122-.419-7.806 2.569-8.231 6.689l-3.458 33.468a7.5 7.5 0 0 0 6.689 8.231zM102.265 197.064c-12.801 0-23.215 10.414-23.215 23.215 0 12.804 10.414 23.221 23.215 23.221s23.216-10.417 23.216-23.221c0-12.801-10.414-23.215-23.216-23.215zm0 31.436c-4.53 0-8.215-3.688-8.215-8.221 0-4.53 3.685-8.215 8.215-8.215 4.53 0 8.216 3.685 8.216 8.215 0 4.533-3.685 8.221-8.216 8.221zM179.707 197.064c-12.801 0-23.216 10.414-23.216 23.215 0 12.804 10.415 23.221 23.216 23.221 12.802 0 23.218-10.417 23.218-23.221 0-12.801-10.416-23.215-23.218-23.215zm0 31.436c-4.53 0-8.216-3.688-8.216-8.221 0-4.53 3.686-8.215 8.216-8.215 4.531 0 8.218 3.685 8.218 8.215 0 4.533-3.687 8.221-8.218 8.221z" data-original="#000000" class="active-path" data-old_color="#000000" fill="#333"/><path d="M224.569 91.057a7.5 7.5 0 0 0-5.933-2.913H69.14l-6.277-24.141a7.5 7.5 0 0 0-7.259-5.612h-30.74a7.5 7.5 0 0 0 0 15h24.941l6.221 23.922c.034.15.073.299.116.446l23.15 89.022a7.5 7.5 0 0 0 7.259 5.612h108.874a7.5 7.5 0 0 0 7.259-5.612l23.211-89.25a7.504 7.504 0 0 0-1.326-6.474zm-34.943 86.337H92.35l-19.309-74.25h135.894l-19.309 74.25z" data-original="#000000" class="active-path" data-old_color="#000000" fill="#333"/><path d="M116.708 39.28a7.474 7.474 0 0 0 5.303-2.197l11.468-11.468-.002 43.907a7.5 7.5 0 0 0 15 0l.002-43.925 11.468 11.468a7.5 7.5 0 0 0 10.606 0 7.5 7.5 0 0 0 0-10.606L146.291 2.197a7.5 7.5 0 0 0-10.606 0l-24.28 24.28a7.5 7.5 0 0 0 0 10.606 7.472 7.472 0 0 0 5.303 2.197z" data-original="#000000" class="active-path" data-old_color="#000000" fill="#333"/></svg>