<svg xmlns="http://www.w3.org/2000/svg" width="512" height="512"><path d="M317.185 113.705c-8.902-8.909-20.741-13.815-33.336-13.815-10.155 0-19.817 3.189-27.843 9.095-8.034-5.906-17.701-9.095-27.857-9.095-12.595 0-24.434 4.906-33.334 13.812-18.378 18.375-18.379 48.283 0 66.672l55.709 55.694a7.736 7.736 0 0 0 5.485 2.272 7.735 7.735 0 0 0 5.486-2.273l55.69-55.695c18.372-18.387 18.372-48.294 0-66.667zm-10.974 55.698l-50.203 50.208-50.221-50.207c-12.33-12.337-12.331-32.402.001-44.733 5.972-5.976 13.913-9.267 22.362-9.267 8.45 0 16.397 3.291 22.375 9.269a7.755 7.755 0 0 0 5.485 2.272h.002a7.754 7.754 0 0 0 5.487-2.276c5.966-5.975 13.903-9.264 22.351-9.264 8.449 0 16.39 3.291 22.363 9.268 12.325 12.328 12.323 32.394-.002 44.73z" data-original="#000000" class="active-path" data-old_color="#000000" fill="#333"/><path d="M493.898 455.112H418.91V49.131C418.91 22.04 396.87 0 369.78 0H59.473c-27.09 0-49.131 22.04-49.131 49.131a7.756 7.756 0 0 0 7.757 7.757h310.305a7.757 7.757 0 0 0 7.757-7.757c0-18.536 15.08-33.616 33.616-33.616s33.616 15.08 33.616 33.616V462.87c0 12.996 5.081 24.82 13.349 33.616H142.221c-18.536 0-33.616-15.08-33.616-33.616V80.163a7.757 7.757 0 0 0-15.514 0v382.706c0 27.09 22.04 49.131 49.131 49.131h310.305c27.09 0 49.131-22.04 49.131-49.131a7.76 7.76 0 0 0-7.76-7.757zM321.267 41.373H26.771c3.513-14.807 16.837-25.858 32.702-25.858h274.524c-6.587 7.009-11.151 15.94-12.73 25.858zm131.259 455.112c-15.865 0-29.189-11.051-32.702-25.858h65.404c-3.513 14.807-16.837 25.858-32.702 25.858z" data-original="#000000" class="active-path" data-old_color="#000000" fill="#333"/><path d="M199.419 281.543a7.76 7.76 0 0 0-10.971 0l-15.199 15.2-4.856-4.858a7.758 7.758 0 0 0-10.971 10.972l10.342 10.342c1.515 1.514 3.5 2.272 5.485 2.272s3.971-.758 5.485-2.272l20.685-20.685a7.757 7.757 0 0 0 0-10.971zM338.741 289.614H224.968a7.757 7.757 0 0 0 0 15.514H338.74a7.757 7.757 0 0 0 .001-15.514zM199.419 343.6a7.76 7.76 0 0 0-10.971 0l-15.199 15.2-4.857-4.857a7.758 7.758 0 0 0-10.97 10.971l10.342 10.342c1.515 1.514 3.5 2.272 5.485 2.272s3.971-.758 5.485-2.272l20.685-20.684a7.756 7.756 0 0 0 0-10.972zM287.02 351.672h-62.051a7.757 7.757 0 0 0 0 15.514h62.051a7.757 7.757 0 0 0 0-15.514zM199.419 405.657a7.76 7.76 0 0 0-10.971 0l-15.199 15.2-4.856-4.857a7.76 7.76 0 0 0-10.971 0 7.759 7.759 0 0 0 .001 10.972l10.342 10.342c1.515 1.514 3.5 2.272 5.485 2.272s3.971-.758 5.485-2.272l20.685-20.685a7.757 7.757 0 0 0-.001-10.972zM349.085 413.73H224.968a7.757 7.757 0 0 0 0 15.514h124.116a7.757 7.757 0 0 0 .001-15.514z" data-original="#000000" class="active-path" data-old_color="#000000" fill="#333"/></svg>