<?xml version="1.0"?>
<svg xmlns="http://www.w3.org/2000/svg" xmlns:xlink="http://www.w3.org/1999/xlink" version="1.1" id="Capa_1" x="0px" y="0px" viewBox="0 0 512 512" style="enable-background:new 0 0 512 512;" xml:space="preserve" width="512px" height="512px" class=""><g><g>
	<g>
		<path d="M317.185,113.705c-8.902-8.909-20.741-13.815-33.336-13.815c-10.155,0-19.817,3.189-27.843,9.095    c-8.034-5.906-17.701-9.095-27.857-9.095c-12.595,0-24.434,4.906-33.334,13.812c-18.378,18.375-18.379,48.283,0,66.672    l55.709,55.694c1.515,1.514,3.5,2.272,5.485,2.272c1.985,0,3.971-0.758,5.486-2.273l55.69-55.695    C335.557,161.985,335.557,132.078,317.185,113.705z M306.211,169.403l-50.203,50.208l-50.221-50.207    c-12.33-12.337-12.331-32.402,0.001-44.733c5.972-5.976,13.913-9.267,22.362-9.267c8.45,0,16.397,3.291,22.375,9.269    c1.454,1.455,3.428,2.272,5.485,2.272c0.001,0,0.002,0,0.002,0c2.06-0.001,4.033-0.819,5.487-2.276    c5.966-5.975,13.903-9.264,22.351-9.264c8.449,0,16.39,3.291,22.363,9.268C318.538,137.001,318.536,157.067,306.211,169.403z" data-original="#000000" class="active-path" data-old_color="#000000" fill="#333333"/>
	</g>
</g><g>
	<g>
		<path d="M493.898,455.112H418.91V49.131C418.91,22.04,396.87,0,369.78,0H59.473c-27.09,0-49.131,22.04-49.131,49.131    c0,4.285,3.473,7.757,7.757,7.757h310.305c4.284,0,7.757-3.473,7.757-7.757c0-18.536,15.08-33.616,33.616-33.616    s33.616,15.08,33.616,33.616V462.87c0,12.996,5.081,24.82,13.349,33.616H142.221c-18.536,0-33.616-15.08-33.616-33.616V80.163    c0-4.285-3.473-7.757-7.757-7.757c-4.284,0-7.757,3.473-7.757,7.757v382.706c0,27.09,22.04,49.131,49.131,49.131h310.305    c27.09,0,49.131-22.04,49.131-49.131C501.656,458.585,498.183,455.112,493.898,455.112z M321.267,41.373H26.771    c3.513-14.807,16.837-25.858,32.702-25.858h274.524C327.41,22.524,322.846,31.455,321.267,41.373z M452.526,496.485    c-15.865,0-29.189-11.051-32.702-25.858h65.404C481.715,485.434,468.391,496.485,452.526,496.485z" data-original="#000000" class="active-path" data-old_color="#000000" fill="#333333"/>
	</g>
</g><g>
	<g>
		<path d="M199.419,281.543c-3.029-3.028-7.941-3.028-10.971,0l-15.199,15.2l-4.856-4.858c-3.029-3.028-7.941-3.028-10.971,0    c-3.03,3.03-3.03,7.941,0,10.972l10.342,10.342c1.515,1.514,3.5,2.272,5.485,2.272s3.971-0.758,5.485-2.272l20.685-20.685    C202.449,289.484,202.449,284.573,199.419,281.543z" data-original="#000000" class="active-path" data-old_color="#000000" fill="#333333"/>
	</g>
</g><g>
	<g>
		<path d="M338.741,289.614H224.968c-4.284,0-7.757,3.473-7.757,7.757c0,4.285,3.473,7.757,7.757,7.757h113.772    c4.284,0,7.757-3.473,7.757-7.757C346.497,293.086,343.025,289.614,338.741,289.614z" data-original="#000000" class="active-path" data-old_color="#000000" fill="#333333"/>
	</g>
</g><g>
	<g>
		<path d="M199.419,343.6c-3.029-3.028-7.941-3.028-10.971,0l-15.199,15.2l-4.857-4.857c-3.029-3.028-7.941-3.028-10.971,0    c-3.029,3.03-3.029,7.941,0.001,10.971l10.342,10.342c1.515,1.514,3.5,2.272,5.485,2.272s3.971-0.758,5.485-2.272l20.685-20.684    C202.45,351.542,202.45,346.631,199.419,343.6z" data-original="#000000" class="active-path" data-old_color="#000000" fill="#333333"/>
	</g>
</g><g>
	<g>
		<path d="M287.02,351.672h-62.051c-4.284,0-7.757,3.473-7.757,7.757s3.472,7.757,7.757,7.757h62.051    c4.284,0,7.757-3.473,7.757-7.757S291.304,351.672,287.02,351.672z" data-original="#000000" class="active-path" data-old_color="#000000" fill="#333333"/>
	</g>
</g><g>
	<g>
		<path d="M199.419,405.657c-3.029-3.028-7.941-3.028-10.971,0l-15.199,15.2L168.393,416c-3.029-3.028-7.941-3.028-10.971,0    c-3.029,3.031-3.029,7.942,0.001,10.972l10.342,10.342c1.515,1.514,3.5,2.272,5.485,2.272s3.971-0.758,5.485-2.272l20.685-20.685    C202.45,413.599,202.45,408.688,199.419,405.657z" data-original="#000000" class="active-path" data-old_color="#000000" fill="#333333"/>
	</g>
</g><g>
	<g>
		<path d="M349.085,413.73H224.968c-4.284,0-7.757,3.473-7.757,7.757c-0.001,4.284,3.472,7.757,7.757,7.757h124.116    c4.284,0,7.757-3.473,7.757-7.757C356.841,417.202,353.369,413.73,349.085,413.73z" data-original="#000000" class="active-path" data-old_color="#000000" fill="#333333"/>
	</g>
</g></g> </svg>
